<svg xmlns="http://www.w3.org/2000/svg" viewBox="0 0 423.33 460"><defs><style>.cls-1{fill:#77a440;}.cls-2{fill:#9f5288;}</style></defs><g id="Camada_2" data-name="Camada 2"><g id="Capa_1" data-name="Capa 1"><path d="M415.37,192.49a38,38,0,0,1,7.46,29.35l-11.37,68.68a38.82,38.82,0,0,1-35.8,32.55c-5.56,19-20,68.22-25.54,84.19-7.51,21.79-25.91,36.84-54.66,44.76-2.45.67-5,1.27-7.49,1.84-.34.09-.67.16-1,.22-23.78,5.15-51.14,5.92-75.29,5.92s-51.47-.77-75.24-5.91a8.48,8.48,0,0,1-1.11-.25c-2.52-.56-5-1.16-7.43-1.82-28.76-7.92-47.16-23-54.67-44.76-5.52-16-20-65.17-25.54-84.19a38.82,38.82,0,0,1-35.8-32.55L.51,221.84A38,38,0,0,1,8,192.49a40.54,40.54,0,0,1,18-13.55C31.21,128.41,52.73,83,87,50.43S165.53,0,211.67,0s90.41,17.91,124.66,50.43,55.8,78,61,128.51A40.54,40.54,0,0,1,415.37,192.49ZM403.1,218.57a18.24,18.24,0,0,0-3.68-14,20.82,20.82,0,0,0-13-8,10.06,10.06,0,0,1-8.54-10.73c0-.14,0-.28.05-.42C369.08,78,285.94,20,211.67,20S54.25,78,45.45,185.44c0,.14,0,.28,0,.42A10.07,10.07,0,0,1,37,196.59a20.78,20.78,0,0,0-13,8,18.24,18.24,0,0,0-3.68,14l11.37,68.69a18.94,18.94,0,0,0,11.63,14.53L37,262a10,10,0,0,1,19.76-3.1l7.35,46.9,54.82,24.08a10,10,0,0,1,5.74,7l21.7,98.72c19.44,3.54,42.14,4.38,65.29,4.38s45.86-.84,65.29-4.38l21.7-98.72a10,10,0,0,1,5.74-7l54.82-24.08,7.35-46.9a10,10,0,0,1,19.76,3.1l-6.24,39.78a19,19,0,0,0,11.64-14.53Zm-50.48,112L317.1,346.16l-18.4,83.73c15.92-5.87,27.64-15,32.52-29.15C335.54,388.2,345.94,353.25,352.62,330.55Zm-228,99.34-18.41-83.73L70.72,330.55c6.68,22.7,17.08,57.65,21.4,70.19C97,414.88,108.73,424,124.65,429.89Z"/><path class="cls-1" d="M399.42,204.55a18.24,18.24,0,0,1,3.68,14l-11.37,68.69a19,19,0,0,1-11.64,14.53L386.33,262a10,10,0,0,0-19.76-3.1l-7.35,46.9L304.4,329.89a10,10,0,0,0-5.74,7L277,435.62c-19.43,3.54-42.14,4.38-65.29,4.38s-45.85-.84-65.29-4.38l-21.7-98.72a10,10,0,0,0-5.74-7L64.12,305.81l-7.35-46.9A10,10,0,0,0,37,262l6.23,39.78a18.94,18.94,0,0,1-11.63-14.53L20.24,218.57a18.24,18.24,0,0,1,3.68-14,20.78,20.78,0,0,1,13-8,10.07,10.07,0,0,0,8.54-10.73c0-.14,0-.28,0-.42C54.25,78,137.4,20,211.67,20S369.08,78,377.89,185.44c0,.14,0,.28-.05.42a10.06,10.06,0,0,0,8.54,10.73A20.82,20.82,0,0,1,399.42,204.55ZM292.77,266.17a58,58,0,0,0,35.47-58.26,10,10,0,0,0-13.84-8.42L230,234.87a10,10,0,0,0-3.69,15.77,58,58,0,0,0,66.42,15.53ZM326.2,108.06a30.53,30.53,0,1,0-30.53,30.53A30.57,30.57,0,0,0,326.2,108.06ZM257.67,363.77a10,10,0,0,0-10-10h-72a10,10,0,1,0,0,20h72A10,10,0,0,0,257.67,363.77Zm3.47-208.22A49.47,49.47,0,1,0,211.67,205,49.52,49.52,0,0,0,261.14,155.55ZM197,250.65a10,10,0,0,0-3.68-15.78l-84.37-35.38a10,10,0,0,0-13.84,8.42A58.14,58.14,0,0,0,197,250.65ZM158.2,108.06a30.53,30.53,0,1,0-30.53,30.53A30.57,30.57,0,0,0,158.2,108.06Z"/><path class="cls-1" d="M317.1,346.16l35.52-15.61c-6.68,22.7-17.08,57.65-21.4,70.19-4.88,14.14-16.6,23.28-32.52,29.15Z"/><path d="M328.24,207.91a58.14,58.14,0,0,1-101.89,42.73A10,10,0,0,1,230,234.87l84.36-35.38a10,10,0,0,1,13.84,8.42Zm-21.71,16.57-53.14,22.28a38.18,38.18,0,0,0,16.92,4,38.23,38.23,0,0,0,36.22-26.23Z"/><path d="M295.67,77.53a30.53,30.53,0,1,1-30.53,30.53A30.57,30.57,0,0,1,295.67,77.53Zm10.53,30.53a10.53,10.53,0,1,0-10.53,10.52A10.54,10.54,0,0,0,306.2,108.06Z"/><path class="cls-2" d="M253.39,246.76l53.14-22.28a38.14,38.14,0,0,1-53.14,22.28Z"/><path class="cls-2" d="M295.67,97.53a10.53,10.53,0,1,1-10.53,10.53A10.54,10.54,0,0,1,295.67,97.53Z"/><path d="M247.67,353.77a10,10,0,1,1,0,20h-72a10,10,0,1,1,0-20Z"/><path d="M211.67,106.09a49.47,49.47,0,1,1-49.47,49.46A49.52,49.52,0,0,1,211.67,106.09Zm29.47,49.46A29.47,29.47,0,1,0,211.67,185,29.5,29.5,0,0,0,241.14,155.55Z"/><path class="cls-2" d="M211.67,126.09a29.47,29.47,0,1,1-29.47,29.46A29.5,29.5,0,0,1,211.67,126.09Z"/><path d="M199.18,241.82a10,10,0,0,1-2.19,8.83A58.15,58.15,0,0,1,95.1,207.91a10,10,0,0,1,13.84-8.42l84.37,35.38A10,10,0,0,1,199.18,241.82ZM170,246.76l-53.14-22.28A38.14,38.14,0,0,0,170,246.76Z"/><path class="cls-2" d="M116.81,224.48,170,246.76a38.18,38.18,0,0,1-16.92,4,38.23,38.23,0,0,1-36.22-26.23Z"/><path d="M127.67,77.53a30.53,30.53,0,1,1-30.53,30.53A30.57,30.57,0,0,1,127.67,77.53Zm10.53,30.53a10.53,10.53,0,1,0-10.53,10.52A10.54,10.54,0,0,0,138.2,108.06Z"/><path class="cls-2" d="M127.67,97.53a10.53,10.53,0,1,1-10.53,10.53A10.54,10.54,0,0,1,127.67,97.53Z"/><path class="cls-1" d="M106.24,346.16l18.41,83.73c-15.92-5.87-27.65-15-32.53-29.15-4.32-12.54-14.72-47.49-21.4-70.19Z"/></g></g></svg>